<svg xmlns="http://www.w3.org/2000/svg" viewBox="0 0 590.44 88.64">
<g id="レイヤー_2" data-name="レイヤー 2">
<polygon class="cls-1" points="16.13 69.61 16.13 19.85 0 19.85 0 2.81 50.31 2.81 50.31 19.85 34.1 19.85 34.1 69.61 16.13 69.61"/>
<path class="cls-1" d="M365.42,331.22c-8.46,0-17.45-6-17.45-17.16a18.11,18.11,0,0,1,6.71-14.42l-5.12-14.58,3.91-2.58a28.4,28.4,0,0,1,15.26-4.3c12.5,0,20,8.09,20,21.63V315a50.87,50.87,0,0,0,.47,8.27l1.31,7.09h-18l0-.31A21,21,0,0,1,365.42,331.22Zm.87-16.67a2.45,2.45,0,0,0,.57.07c2.68,0,3.93-1.92,3.93-3.22v-1a14.19,14.19,0,0,0-2.89.75c-1.81.73-1.81,1.36-1.81,2.22a2.41,2.41,0,0,0,.2,1.21Z" transform="translate(-306.93 -260.76)"/>
<polygon class="cls-1" points="107.28 69.61 99.26 58.14 99.26 69.61 81.29 69.61 81.29 0 99.26 0 99.26 26.03 105.74 18.36 129.31 18.36 108.7 40.99 129.54 69.61 107.28 69.61"/>
<path class="cls-1" d="M442.67,331.22c-9.13,0-18.89-6-18.89-22.92V279.12h18v28.1c0,7,1.81,7,2.78,7a4.41,4.41,0,0,0,4.23-4.65V279.12h18v34.8c0,3.17.13,5.87.27,8.49l.38,7.95H450l0-.41A21.24,21.24,0,0,1,442.67,331.22Z" transform="translate(-306.93 -260.76)"/>
<path class="cls-1" d="M514.08,330.36V301.68c0-4.33-.89-6.53-2.65-6.53-1.34,0-3.21,1.72-3.21,4.51v30.7H490.31V300.17c0-1.51-.21-5-2.21-5-1.65,0-3.64,2.3-3.64,5.16v30.05H466.55V295.2c0-3.6-.12-6.31-.25-9.17l-.31-7h17.2v.28a20.34,20.34,0,0,1,6.85-1.14,16.91,16.91,0,0,1,11.23,4.13,19.16,19.16,0,0,1,12.24-4.13,17.45,17.45,0,0,1,12.24,4.94c4.13,4,6.22,10,6.22,17.62v29.62Z" transform="translate(-306.93 -260.76)"/>
<path class="cls-1" d="M531.57,330.36V279.12h.33a10.36,10.36,0,0,1-1.27-5,9.93,9.93,0,1,1,19.85,0,10.51,10.51,0,0,1-1.23,5h.29v51.24Z" transform="translate(-306.93 -260.76)"/>
<polygon class="cls-1" points="291.25 69.61 277.46 48.45 277.46 69.61 259.49 69.61 259.49 2.74 277.46 2.74 277.46 18.18 289.82 2.74 312.8 2.74 288.2 32.47 312.71 69.61 291.25 69.61"/>
<path class="cls-1" d="M628.86,331.22C614.81,331.22,605,320.44,605,305c0-15.78,10-26.81,24.37-26.81,14,0,23.85,10.79,23.85,26.23C653.22,322.83,640.59,331.22,628.86,331.22Zm.29-36.36a4.5,4.5,0,0,0-4.15,2.36,14.47,14.47,0,0,0-1.88,7.55c0,4.81,2.2,9.77,5.89,9.77,3.41,0,6.09-4.35,6.09-9.91C635.1,304.53,635,294.86,629.15,294.86Z" transform="translate(-306.93 -260.76)"/>
<path class="cls-1" d="M674.44,331.22a21.6,21.6,0,0,1-7.55-1.27l0,.41h-17.2L650,324c.14-2.5.28-6.38.28-9.39V260.76h18v18.53a22.93,22.93,0,0,1,7.18-1.11c12.86,0,21.84,10.73,21.84,26.09C697.29,322,685.79,331.22,674.44,331.22Zm-.94-36.14c-3.37,0-5.23,3.65-5.23,6.17V309a5.08,5.08,0,0,0,5,5.31c5.3,0,5.88-6.88,5.88-9.84C679.17,301,678,295.08,673.5,295.08Z" transform="translate(-306.93 -260.76)"/>
<path class="cls-1" d="M708.71,331.22c-8.46,0-17.45-6-17.45-17.16A18.14,18.14,0,0,1,698,299.63l-5.11-14.57,3.9-2.58a28.4,28.4,0,0,1,15.26-4.3c12.5,0,20,8.09,20,21.63V315a50.81,50.81,0,0,0,.48,8.27l1.3,7.09h-18l0-.31A21,21,0,0,1,708.71,331.22Zm.87-16.67a2.45,2.45,0,0,0,.57.07c2.68,0,3.93-1.92,3.93-3.22v-1a14.19,14.19,0,0,0-2.89.75c-1.81.73-1.81,1.36-1.81,2.22a2.41,2.41,0,0,0,.2,1.21Z" transform="translate(-306.93 -260.76)"/>
<path class="cls-1" d="M726.62,333.56l5.42-2c4.7-1.74,7.46-6.31,8.48-8.62l-16.78-43.81h19.5l6.84,19,6.36-19h19.32L762.28,315c-5,13.58-8.59,21.49-14.4,27A25.47,25.47,0,0,1,737.23,348l-5.41,1.35Z" transform="translate(-306.93 -260.76)"/>
<path class="cls-1" d="M782.15,331.22c-8.46,0-17.45-6-17.45-17.16a18.14,18.14,0,0,1,6.71-14.43l-5.12-14.57,3.91-2.58a28.4,28.4,0,0,1,15.26-4.3c12.5,0,20,8.09,20,21.63V315a50.81,50.81,0,0,0,.48,8.27l1.3,7.09h-18l0-.31A21,21,0,0,1,782.15,331.22Zm.87-16.67a2.45,2.45,0,0,0,.57.07c2.68,0,3.93-1.92,3.93-3.22v-1a14.19,14.19,0,0,0-2.89.75c-1.81.73-1.81,1.36-1.81,2.22a2.41,2.41,0,0,0,.2,1.21Z" transform="translate(-306.93 -260.76)"/>
<path class="cls-1" d="M818.44,331.15a27,27,0,0,1-13.37-3.5l-4.25-2.53,5.77-16.07,6.24,3.65a12.76,12.76,0,0,0,5.82,1.84,4.25,4.25,0,0,0,1.85-.3v0a2,2,0,0,0,0-.33c-.16-.18-.87-.83-3.49-1.88-11.38-4.58-13.77-11.59-13.77-16.66,0-9.78,8.09-17.16,18.82-17.16a23.35,23.35,0,0,1,12.16,3.28l4.2,2.61-6.13,16.11L826,296.12a8.07,8.07,0,0,0-4.36-1.33h0a31.25,31.25,0,0,0,3,1.45c3.3,1.35,13.64,5.58,13.64,17.32C838.33,323.92,830.15,331.15,818.44,331.15Z" transform="translate(-306.93 -260.76)"/>
<path class="cls-1" d="M860.89,330.36V301.17c0-5.95-2-5.95-3.07-5.95a4.69,4.69,0,0,0-4.37,5v30.12h-18v-69.6h18v18.46a19.78,19.78,0,0,1,6.31-1c7.1,0,19.11,4.69,19.11,22.27v29.91Z" transform="translate(-306.93 -260.76)"/>
<path class="cls-1" d="M878.46,330.36V279.12h.33a10.36,10.36,0,0,1-1.27-5,9.93,9.93,0,1,1,19.85,0,10.51,10.51,0,0,1-1.23,5h.29v51.24Z" transform="translate(-306.93 -260.76)"/>
</g>
<g id="レイヤー_1" data-name="レイヤー 1">
<path d="M351.24,274.6H335v49.76h-6V274.6H312.93v-5h38.31Z" transform="translate(-306.93 -260.76)"/><path d="M382.7,315a55.38,55.38,0,0,0,.57,9.36H377.8l-.57-5H377a13.64,13.64,0,0,1-11.59,5.9c-7.49,0-11.45-5.47-11.45-11.16,0-9.43,8.21-14.54,22.75-14.47,0-3.31,0-10.8-8.93-10.8a17,17,0,0,0-9.57,2.81l-1.44-4.11a22.29,22.29,0,0,1,12-3.31c11.09,0,14,7.85,14,15.63Zm-5.91-11c-7.41,0-16.7,1.08-16.7,9.36,0,5,3.17,7.28,6.77,7.28a9.59,9.59,0,0,0,9.93-9.22Z" transform="translate(-306.93 -260.76)"/><path d="M424.67,324.36h-7.34L403.79,305l-3.6,4.11v15.26h-6v-57.6h6v36.65h.15c.93-1.37,2.3-3.1,3.38-4.4l11.74-13.89h7.2l-14.76,16.2Z" transform="translate(-306.93 -260.76)"/><path d="M460.75,313.92c0,4,.21,7.42.36,10.44h-5.4l-.29-6.19h-.22a14.23,14.23,0,0,1-12.53,7.05c-5.9,0-12.89-3.38-12.89-16.92V285.12h6v22.1c0,7.64,2.23,13,8.78,13a10.38,10.38,0,0,0,10.23-10.65V285.12h6Z" transform="translate(-306.93 -260.76)"/><path d="M526,324.36h-5.9V301.68c0-7.63-2.74-12.53-8.65-12.53-4.82,0-9.21,4.54-9.21,10.51v24.7h-5.91V300.17c0-6.27-2.66-11-8.21-11-5.11,0-9.64,5-9.64,11.16v24.05h-5.91V295.2c0-4-.14-6.91-.29-10.16h5.26l.36,6.34h.22c2.16-3.82,5.76-7.2,11.95-7.2A11.22,11.22,0,0,1,500.78,292h.14c2.59-4.68,6.55-7.85,12.6-7.85,4.83,0,12.46,3.1,12.46,16.56Z" transform="translate(-306.93 -260.76)"/><path d="M540.52,278.2a4.07,4.07,0,0,1,.07-8.13,4.07,4.07,0,0,1-.07,8.13Zm3,46.16h-6V285.12h6Z" transform="translate(-306.93 -260.76)"/><path d="M608.49,324.36h-7.06L583.5,296.85l-5.11,6v21.53h-6V269.49h6v26.79h.29c1.37-2.09,2.88-4.11,4.25-5.91l16.7-20.88H607l-19.3,23.33Z" transform="translate(-306.93 -260.76)"/><path d="M647.22,304.41c0,14.62-9.65,20.81-18.36,20.81-10.08,0-17.86-7.56-17.86-20.23,0-13.39,8.36-20.81,18.37-20.81C640.09,284.18,647.22,292.39,647.22,304.41Zm-18.07-15.55c-8.5,0-12,8.35-12,15.91,0,8.72,4.83,15.77,11.89,15.77s12.09-7.05,12.09-15.91C641.1,297.65,637.72,288.86,629.15,288.86Z" transform="translate(-306.93 -260.76)"/><path d="M662.41,291.45c2.45-4.53,6.91-7.27,13-7.27,9.28,0,15.84,8,15.84,20.09,0,14.26-8.72,21-16.85,21-5.69,0-9.87-2.3-12.68-7.34h-.21l-.36,6.48H656c.15-2.59.29-6.55.29-9.72V266.76h6v24.69ZM662.27,309a11.07,11.07,0,0,0,11,11.31c7.63,0,11.88-6.55,11.88-15.84,0-8.21-4-15.41-11.67-15.41-6.84,0-11.23,6.41-11.23,12.17Z" transform="translate(-306.93 -260.76)"/><path d="M726,315a54.32,54.32,0,0,0,.58,9.36h-5.48l-.57-5h-.22a13.62,13.62,0,0,1-11.59,5.9c-7.49,0-11.45-5.47-11.45-11.16,0-9.43,8.21-14.54,22.75-14.47,0-3.31,0-10.8-8.93-10.8a17,17,0,0,0-9.57,2.81l-1.44-4.11A22.31,22.31,0,0,1,712,284.18c11.09,0,14,7.85,14,15.63Zm-5.91-11c-7.41,0-16.7,1.08-16.7,9.36,0,5,3.17,7.28,6.77,7.28a9.59,9.59,0,0,0,9.93-9.22Z" transform="translate(-306.93 -260.76)"/><path d="M767.1,285.12l-10.44,27.79c-4.68,12.75-8,20.09-12.89,24.7a19.81,19.81,0,0,1-8,4.61l-1.66-5c9.15-3.39,12.68-13.32,12.68-14.12a5,5,0,0,0-.44-1.65l-13.89-36.29H739L747.59,309c1,2.74,1.87,5.83,2.52,8.21h.21c.65-2.38,1.59-5.33,2.52-8.35l7.92-23.69Z" transform="translate(-306.93 -260.76)"/><path d="M799.43,315a55.38,55.38,0,0,0,.57,9.36h-5.47l-.57-5h-.22a13.64,13.64,0,0,1-11.59,5.9c-7.49,0-11.45-5.47-11.45-11.16,0-9.43,8.21-14.54,22.75-14.47,0-3.31,0-10.8-8.93-10.8A17,17,0,0,0,775,291.6l-1.44-4.11a22.29,22.29,0,0,1,12-3.31c11.09,0,14,7.85,14,15.63Zm-5.91-11c-7.41,0-16.7,1.08-16.7,9.36,0,5,3.17,7.28,6.77,7.28a9.59,9.59,0,0,0,9.93-9.22Z" transform="translate(-306.93 -260.76)"/><path d="M829.31,291.09a14.12,14.12,0,0,0-7.63-2.3c-4.32,0-6.63,2.66-6.63,5.83,0,3.39,2.23,5,7.27,7.13,6.34,2.59,10,5.9,10,11.81,0,7-5.33,11.59-13.89,11.59a20.81,20.81,0,0,1-10.3-2.66l1.65-4.61a18.73,18.73,0,0,0,8.86,2.66c5.26,0,7.85-2.8,7.85-6.33s-2.09-5.69-7.27-7.78c-6.63-2.66-10-6.34-10-11.09,0-6.12,4.9-11.16,12.82-11.16a17.35,17.35,0,0,1,9,2.38Z" transform="translate(-306.93 -260.76)"/><path d="M872.87,324.36h-6V301.17c0-6.4-2.3-11.95-9.07-11.95a10.69,10.69,0,0,0-10.37,11v24.12h-6v-57.6h6v24.41h.14a14.44,14.44,0,0,1,12.17-7c4.83,0,13.11,2.95,13.11,16.27Z" transform="translate(-306.93 -260.76)"/><path d="M887.41,278.2a4.07,4.07,0,0,1,.07-8.13,4.07,4.07,0,0,1-.07,8.13Zm3,46.16h-6V285.12h6Z" transform="translate(-306.93 -260.76)"/></g>
</svg>